<svg width="226" height="22" viewBox="0 0 226 22" fill="none" xmlns="http://www.w3.org/2000/svg">
<path d="M112.551 21.6846H104.784V0.313818H112.551V21.6846ZM105.542 20.904H111.792V1.09446H105.542V20.904ZM123.358 21.6846H115.747V0.313818H131.649C133.926 0.123966 136.195 0.782155 138.041 2.16862C138.836 2.91696 139.452 3.84417 139.841 4.87789C140.23 5.91163 140.382 7.02393 140.285 8.12803C140.398 10.0359 139.808 11.9176 138.633 13.3973C137.242 15.0398 134.927 15.886 131.753 15.9157C130.954 15.9375 124.963 15.9157 123.363 15.9157L123.358 21.6846ZM116.501 20.904H122.6V15.1272H122.98C123.058 15.1272 130.835 15.1522 131.735 15.1272C134.692 15.1007 136.817 14.3466 138.059 12.8743C139.106 11.5354 139.626 9.84098 139.516 8.12646C139.609 7.13719 139.48 6.13909 139.138 5.20959C138.796 4.28008 138.25 3.44414 137.544 2.76659C135.832 1.50211 133.737 0.908556 131.638 1.0929H116.506L116.501 20.904ZM130.037 11.1148H122.548V5.29742H130.088C130.622 5.22142 131.166 5.28562 131.67 5.48404C132.174 5.68248 132.621 6.00871 132.97 6.43247C133.286 6.97414 133.435 7.60184 133.398 8.23263C133.426 8.81827 133.303 9.4012 133.041 9.92194C132.681 10.3683 132.216 10.7119 131.69 10.9197C131.164 11.1275 130.595 11.1925 130.037 11.1085V11.1148ZM123.307 10.3341H130.037C131.281 10.3341 132.052 10.0671 132.393 9.51756C132.581 9.11811 132.666 8.67566 132.641 8.23263C132.674 7.76746 132.576 7.30233 132.358 6.89305L132.349 6.879C131.988 6.33255 131.271 6.07806 130.088 6.07806H123.307V10.3341ZM154.127 22C147.316 22 143.251 20.2592 141.702 16.6792C141.448 15.9877 141.276 15.2674 141.189 14.534L141.122 14.0843H149.226L149.279 14.4122C149.341 14.745 149.479 15.0584 149.68 15.3271C150 15.7252 151.068 16.3934 154.611 16.3934C158.871 16.3934 158.871 15.6237 158.871 15.21C158.871 14.5121 158.378 14.2732 154.904 13.8923L154.244 13.8283C152.937 13.7018 151.283 13.541 150.528 13.4738C144.156 12.8806 141.312 10.8431 141.312 6.86963C141.312 2.69633 146.153 0 153.645 0C159.757 0 163.695 1.65808 165.347 4.93208C165.739 5.69365 166.003 6.51833 166.125 7.3708L166.179 7.80952H158.066L158.032 7.45667C158 7.18092 157.887 6.92223 157.705 6.71663C157.401 6.2982 156.442 5.60656 153.466 5.60656C149.812 5.60656 149.308 6.08743 149.308 6.60578C149.308 7.29742 150.462 7.54254 154.162 7.95004C155.705 8.07963 158.185 8.34192 159.035 8.44809C164.376 9.0445 166.76 11.032 166.76 14.8946C166.761 18.1343 164.569 22 154.127 22ZM142.008 14.8649C142.084 15.3799 142.215 15.8845 142.398 16.37C143.809 19.6315 147.647 21.2194 154.127 21.2194C159.546 21.2194 166.007 20.1265 166.007 14.8946C166.007 11.4707 163.898 9.77518 158.955 9.22404C158.105 9.11788 155.64 8.85714 154.1 8.726C150.156 8.28572 148.552 8.05152 148.552 6.60578C148.552 5.11007 150.28 4.82592 153.469 4.82592C155.989 4.82592 157.617 5.2943 158.307 6.23888C158.495 6.47158 158.638 6.73997 158.725 7.02888H165.3C165.168 6.42506 164.959 5.84183 164.678 5.2943C163.161 2.2982 159.455 0.78064 153.648 0.78064C146.617 0.78064 142.073 3.17096 142.073 6.86963C142.073 10.3981 144.623 12.1405 150.597 12.6963C151.356 12.7635 153.008 12.9243 154.319 13.0523L154.983 13.1163C158.21 13.466 159.633 13.6846 159.633 15.21C159.633 16.8525 157.793 17.1741 154.614 17.1741C151.674 17.1741 149.818 16.7197 149.1 15.8251C148.879 15.5399 148.712 15.2141 148.609 14.8649H142.008ZM181.171 21.9735C173.252 21.9735 168.883 18.6776 168.883 12.6916V0.313818H176.547V12.6916C176.547 14.7447 178.333 15.9219 181.444 15.9219C184.417 15.9219 186.264 14.6932 186.264 12.7182V0.313818H193.849V13.3474C193.856 18.829 189.231 21.9735 181.167 21.9735H181.171ZM169.642 1.09446V12.6916C169.642 20.089 176.86 21.1928 181.171 21.1928C185.628 21.1928 193.102 20.1733 193.102 13.3474V1.09446H187.034V12.7182C187.034 15.1382 184.844 16.7026 181.456 16.7026C177.916 16.7026 175.801 15.2037 175.801 12.6916V1.09446H169.642ZM225.991 21.6846H218.758V12.0359L214.656 21.6846H208.347L204.287 12.0546V21.6846H197.028V0.313818H206.576L211.537 12.0968L216.737 0.313818H226L225.991 21.6846ZM219.516 20.904H225.232V1.09446H217.22L211.513 14.0203L206.073 1.09446H197.781V20.904H203.523V8.2982L208.832 20.9087H214.142L219.507 8.31694L219.516 20.904ZM6.90843 0.704138H0V21.2943H19.09V15.8126H6.90843V0.704138ZM33.0342 0.235753C24.2159 0.235753 19.5784 4.53708 19.5784 10.8525C19.5784 17.9875 24.4465 21.6066 33.0342 21.6066C42.4882 21.6066 46.4643 17.4098 46.4643 10.8525C46.4643 4.1936 41.9785 0.232631 33.0342 0.232631V0.235753ZM33.0085 5.58626C33.6087 5.58336 34.2087 5.61933 34.8046 5.69399L27.0815 13.6425C26.7161 12.7917 26.5378 11.8682 26.5597 10.9383C26.5597 7.70804 28.1404 5.58314 33.0085 5.58314V5.58626ZM33.0342 16.3404C32.4558 16.343 31.8778 16.3096 31.3033 16.2404L39.0401 8.27791C39.3919 9.1146 39.5602 10.0208 39.5331 10.9321C39.5331 14.0749 38.0768 16.3372 33.0342 16.3372V16.3404ZM60.1522 13.5301H67.2624C67.1577 14.0379 66.9396 14.5137 66.6252 14.9196C65.1512 16.1555 63.2699 16.7569 61.3749 16.598C60.421 16.703 59.4565 16.5958 58.5464 16.2835C57.6364 15.9714 56.802 15.4615 56.1003 14.7884C55.3814 13.7032 55.0399 12.3998 55.1309 11.0898C55.0146 9.717 55.3859 8.34741 56.1761 7.23497C57.1698 6.07962 58.8521 5.58158 61.3248 5.58158C62.8981 5.44751 64.4694 5.86336 65.7848 6.7619C66.1994 7.10083 66.5093 7.55646 66.6768 8.07338H73.2712C73.2233 7.22165 73.0243 6.38615 72.6841 5.60812C71.1049 2.30289 67.4338 0.335675 61.1913 0.335675C55.762 0.335675 52.1181 2.04059 50.1051 4.61202C48.7756 6.46895 48.0931 8.73293 48.1679 11.0383C48.0819 13.3958 48.7468 15.7176 50.0611 17.6503C52.0499 20.3044 55.5921 21.6097 59.8488 21.6097C62.6788 21.8128 65.4895 20.997 67.7994 19.3021L67.9784 21.2943H73.4563V9.09758H60.1522V13.5301ZM89.0041 0.231069C80.1872 0.231069 75.5482 4.5324 75.5482 10.8478C75.5482 17.9828 80.4148 21.6019 89.0041 21.6019C98.4595 21.6019 102.436 17.4052 102.436 10.8478C102.436 4.1936 97.9498 0.232631 89.0041 0.232631V0.231069ZM88.9798 5.58158C89.5643 5.5798 90.1483 5.61421 90.7289 5.68462L83.0362 13.6066C82.6821 12.7652 82.5098 11.855 82.531 10.9383C82.5249 7.70804 84.1117 5.58314 88.9798 5.58314V5.58158ZM89.0041 16.3357C88.4103 16.3383 87.817 16.3027 87.2276 16.2295L94.9901 8.23888C95.3553 9.0867 95.5301 10.0083 95.5014 10.9352C95.5044 14.0749 94.0542 16.3372 89.0041 16.3372V16.3357Z" fill="black"/>
</svg>
