<svg width="81" height="81" viewBox="0 0 81 81" fill="none" xmlns="http://www.w3.org/2000/svg">
<path d="M40.436 0.436768C32.5247 0.436768 24.7911 2.78275 18.2131 7.17805C11.6352 11.5733 6.50826 17.8205 3.48078 25.1296C0.453304 32.4387 -0.338774 40.4815 1.20471 48.2407C2.74819 56 6.55792 63.1273 12.1521 68.7214C17.7463 74.3154 24.8737 78.125 32.633 79.6683C40.3923 81.2116 48.435 80.4193 55.744 77.3917C63.053 74.364 69.3001 69.237 73.6953 62.6589C78.0904 56.0808 80.4362 48.3471 80.436 40.4358C80.4237 29.831 76.2054 19.6641 68.7066 12.1655C61.2078 4.66688 51.0408 0.448855 40.436 0.436768ZM40.436 78.1057C32.9856 78.1057 25.7025 75.8964 19.5078 71.7572C13.313 67.618 8.48473 61.7348 5.63358 54.8515C2.78244 47.9682 2.03645 40.394 3.48995 33.0868C4.94345 25.7795 8.53116 19.0674 13.7994 13.7992C19.0676 8.53094 25.7798 4.94323 33.087 3.48973C40.3943 2.03623 47.9684 2.78222 54.8517 5.63337C61.735 8.48451 67.6182 13.3128 71.7574 19.5075C75.8967 25.7023 78.106 32.9854 78.106 40.4358C78.0946 50.423 74.1222 59.9979 67.0602 67.06C59.9981 74.122 50.4232 78.0944 40.436 78.1057Z" fill="#FB8E26"/>
<path d="M40.436 8.20337C34.0607 8.20318 27.8286 10.0935 22.5277 13.6353C17.2268 17.1771 13.0953 22.2112 10.6555 28.1011C8.21569 33.9911 7.57728 40.4722 8.82098 46.7249C10.0647 52.9777 13.1346 58.7212 17.6426 63.2292C22.1506 67.7372 27.8941 70.8071 34.1469 72.0508C40.3996 73.2945 46.8807 72.6561 52.7707 70.2163C58.6606 67.7765 63.6947 63.645 67.2365 58.3441C70.7783 53.0432 72.6686 46.811 72.6684 40.4358C72.6588 31.8902 69.2598 23.6973 63.2171 17.6547C57.1745 11.612 48.9816 8.21299 40.436 8.20337ZM41.601 70.3093V67.2336C41.601 66.9246 41.4783 66.6283 41.2598 66.4098C41.0413 66.1913 40.745 66.0685 40.436 66.0685C40.127 66.0685 39.8307 66.1913 39.6122 66.4098C39.3937 66.6283 39.2709 66.9246 39.2709 67.2336V70.3093C31.7542 70.0071 24.6269 66.8857 19.3074 61.5662C13.988 56.2468 10.8666 49.1194 10.5644 41.6027H13.6401C13.9491 41.6027 14.2454 41.48 14.4639 41.2615C14.6824 41.043 14.8051 40.7467 14.8051 40.4377C14.8051 40.1287 14.6824 39.8324 14.4639 39.6139C14.2454 39.3954 13.9491 39.2726 13.6401 39.2726H10.5644C10.8666 31.7559 13.988 24.6285 19.3074 19.3091C24.6269 13.9897 31.7542 10.8683 39.2709 10.5661V13.6418C39.2709 13.9508 39.3937 14.2471 39.6122 14.4656C39.8307 14.6841 40.127 14.8068 40.436 14.8068C40.745 14.8068 41.0413 14.6841 41.2598 14.4656C41.4783 14.2471 41.601 13.9508 41.601 13.6418V10.5661C49.1177 10.8683 56.2451 13.9897 61.5645 19.3091C66.884 24.6285 70.0054 31.7559 70.3076 39.2726H67.2319C66.9229 39.2726 66.6266 39.3954 66.4081 39.6139C66.1896 39.8324 66.0668 40.1287 66.0668 40.4377C66.0668 40.7467 66.1896 41.043 66.4081 41.2615C66.6266 41.48 66.9229 41.6027 67.2319 41.6027H70.3076C70.0054 49.1194 66.884 56.2468 61.5645 61.5662C56.2451 66.8857 49.1177 70.0071 41.601 70.3093Z" fill="#FB8E26"/>
<path d="M44.7144 36.5214C44.6209 36.3728 44.4951 36.2473 44.3463 36.1542L26.7057 25.0994C26.4823 24.9588 26.2177 24.8984 25.9554 24.9278C25.6931 24.9573 25.4486 25.0749 25.2619 25.2615C25.0752 25.4481 24.9574 25.6926 24.9278 25.9549C24.8982 26.2172 24.9585 26.4817 25.0989 26.7053L36.1565 44.3505C36.25 44.4991 36.3758 44.6246 36.5247 44.7177L54.1652 55.7725C54.3887 55.9131 54.6532 55.9735 54.9155 55.9441C55.1778 55.9146 55.4223 55.797 55.609 55.6104C55.7957 55.4238 55.9136 55.1793 55.9432 54.917C55.9728 54.6547 55.9124 54.3902 55.772 54.1666L44.7144 36.5214ZM41.8689 37.3509L37.3542 41.8657L29.7702 29.7679L41.8689 37.3509ZM39.002 43.5135L43.5168 38.9988L51.1007 51.0975L39.002 43.5135Z" fill="#FB8E26"/>
</svg>
