<svg width="88" height="81" viewBox="0 0 88 81" fill="none" xmlns="http://www.w3.org/2000/svg">
<path d="M86.3737 36.147H81.5638V8.23106C81.5623 6.22349 80.7643 4.29854 79.345 2.8787C77.9257 1.45886 76.0011 0.66014 73.9935 0.657837H13.7256C11.7187 0.660138 9.79468 1.45833 8.37549 2.87733C6.95631 4.29634 6.15787 6.22029 6.15531 8.22719V36.147H1.34644C1.02612 36.147 0.718921 36.2743 0.49242 36.5008C0.265918 36.7273 0.138672 37.0345 0.138672 37.3548C0.138672 37.6751 0.265918 37.9823 0.49242 38.2088C0.718921 38.4353 1.02612 38.5626 1.34644 38.5626H6.15531V62.7519C6.15861 64.6837 6.90007 66.5413 8.22797 67.9445C9.55587 69.3477 11.3698 70.1903 13.2986 70.3V73.0402C13.2986 75.0605 14.1011 76.9981 15.5297 78.4267C16.9583 79.8553 18.8959 80.6578 20.9162 80.6578C22.9366 80.6578 24.8741 79.8553 26.3027 78.4267C27.7313 76.9981 28.5339 75.0605 28.5339 73.0402V70.3222H59.1447V73.0402C59.1447 75.0605 59.9472 76.9981 61.3758 78.4267C62.8044 79.8553 64.742 80.6578 66.7623 80.6578C68.7827 80.6578 70.7203 79.8553 72.1488 78.4267C73.5774 76.9981 74.38 75.0605 74.38 73.0402V70.3019C76.3165 70.2025 78.141 69.364 79.4777 67.9594C80.8144 66.5547 81.5614 64.6909 81.5648 62.7519V38.5626H86.3737C86.694 38.5626 87.0012 38.4353 87.2277 38.2088C87.4542 37.9823 87.5814 37.6751 87.5814 37.3548C87.5814 37.0345 87.4542 36.7273 87.2277 36.5008C87.0012 36.2743 86.694 36.147 86.3737 36.147ZM8.57086 13.7491H79.1483V41.6593H8.57086V13.7491ZM13.7256 3.07338H73.9935C75.36 3.07492 76.6701 3.61837 77.6365 4.58454C78.6028 5.5507 79.1465 6.8607 79.1483 8.22719V11.3297H8.57086V8.23106C8.57163 6.86389 9.11487 5.55291 10.0813 4.5859C11.0478 3.6189 12.3585 3.07492 13.7256 3.07338ZM26.1184 73.0402C26.1184 74.4199 25.5703 75.743 24.5947 76.7186C23.6191 77.6942 22.2959 78.2423 20.9162 78.2423C19.5365 78.2423 18.2134 77.6942 17.2378 76.7186C16.2622 75.743 15.7141 74.4199 15.7141 73.0402V70.3222H26.1184V73.0402ZM71.9645 73.0402C71.9645 73.7233 71.8299 74.3998 71.5685 75.0309C71.307 75.6621 70.9239 76.2356 70.4408 76.7186C69.9577 77.2017 69.3842 77.5849 68.7531 77.8463C68.1219 78.1077 67.4455 78.2423 66.7623 78.2423C66.0792 78.2423 65.4027 78.1077 64.7716 77.8463C64.1404 77.5849 63.5669 77.2017 63.0839 76.7186C62.6008 76.2356 62.2176 75.6621 61.9562 75.0309C61.6948 74.3998 61.5602 73.7233 61.5602 73.0402V70.3222H71.9645V73.0402ZM73.9935 67.9066H13.7256C12.359 67.9051 11.0487 67.3615 10.0824 66.3951C9.11598 65.4288 8.57239 64.1185 8.57086 62.7519V44.0749H79.1483V62.7519C79.1468 64.1185 78.6032 65.4288 77.6368 66.3951C76.6704 67.3615 75.3602 67.9051 73.9935 67.9066Z" fill="#FB8E26"/>
<path d="M23.3862 48.1571C22.0323 48.1579 20.7089 48.5601 19.5835 49.3128C18.4581 50.0656 17.5811 51.1352 17.0635 52.3863C16.5459 53.6374 16.4109 55.0139 16.6755 56.3418C16.9401 57.6697 17.5925 58.8893 18.5502 59.8464C19.5078 60.8035 20.7278 61.4552 22.0558 61.7191C23.3838 61.9829 24.7602 61.8471 26.0111 61.3288C27.2619 60.8105 28.331 59.9329 29.0831 58.8071C29.8353 57.6813 30.2367 56.3577 30.2367 55.0037C30.2347 53.1878 29.5121 51.447 28.2278 50.1633C26.9434 48.8797 25.2021 48.1581 23.3862 48.1571ZM23.3862 59.4348C22.51 59.434 21.6537 59.1735 20.9255 58.6862C20.1973 58.1988 19.63 57.5065 19.2952 56.6967C18.9604 55.887 18.8732 54.9962 19.0446 54.1369C19.216 53.2776 19.6384 52.4884 20.2582 51.8691C20.8781 51.2498 21.6676 50.8282 22.527 50.6575C23.3865 50.4869 24.2772 50.5748 25.0867 50.9103C25.8961 51.2458 26.5879 51.8137 27.0747 52.5424C27.5614 53.271 27.8212 54.1275 27.8212 55.0037C27.8199 56.1793 27.3521 57.3063 26.5206 58.1373C25.6891 58.9682 24.5618 59.4353 23.3862 59.4358V59.4348Z" fill="#FB8E26"/>
<path d="M64.3344 48.1571C62.9803 48.1571 61.6566 48.5587 60.5306 49.311C59.4047 50.0633 58.5272 51.1326 58.009 52.3836C57.4908 53.6347 57.3552 55.0113 57.6194 56.3394C57.8835 57.6676 58.5356 58.8875 59.4931 59.845C60.4506 60.8025 61.6706 61.4546 62.9987 61.7188C64.3268 61.983 65.7035 61.8474 66.9545 61.3292C68.2056 60.811 69.2749 59.9334 70.0272 58.8075C70.7795 57.6816 71.181 56.3579 71.181 55.0037C71.179 53.1885 70.457 51.4482 69.1735 50.1647C67.8899 48.8811 66.1496 48.1592 64.3344 48.1571ZM64.3344 59.4348C63.458 59.4348 62.6013 59.1749 61.8726 58.688C61.144 58.2011 60.576 57.5091 60.2406 56.6994C59.9053 55.8898 59.8175 54.9988 59.9885 54.1393C60.1595 53.2797 60.5815 52.4902 61.2012 51.8705C61.8209 51.2508 62.6104 50.8288 63.47 50.6578C64.3295 50.4868 65.2204 50.5746 66.0301 50.9099C66.8398 51.2453 67.5318 51.8133 68.0187 52.542C68.5056 53.2706 68.7655 54.1273 68.7655 55.0037C68.7642 56.1786 68.297 57.305 67.4663 58.1359C66.6356 58.9668 65.5093 59.4342 64.3344 59.4358V59.4348Z" fill="#FB8E26"/>
<path d="M37.718 8.67739H50.0025C50.3229 8.67739 50.63 8.55014 50.8566 8.32364C51.0831 8.09714 51.2103 7.78994 51.2103 7.46961C51.2103 7.14929 51.0831 6.84209 50.8566 6.61559C50.63 6.38909 50.3229 6.26184 50.0025 6.26184H37.718C37.3977 6.26184 37.0905 6.38909 36.864 6.61559C36.6375 6.84209 36.5103 7.14929 36.5103 7.46961C36.5103 7.78994 36.6375 8.09714 36.864 8.32364C37.0905 8.55014 37.3977 8.67739 37.718 8.67739Z" fill="#FB8E26"/>
</svg>
