<svg width="70" height="81" viewBox="0 0 70 81" fill="none" xmlns="http://www.w3.org/2000/svg">
<path d="M60.8302 0.243408H9.72335C7.33246 0.245936 5.04022 1.19683 3.34961 2.88745C1.65899 4.57806 0.708094 6.8703 0.705566 9.26119V71.2256C0.708094 73.6165 1.65899 75.9088 3.34961 77.5994C5.04022 79.29 7.33246 80.2409 9.72335 80.2434H60.8302C63.2211 80.2409 65.5133 79.29 67.2039 77.5994C68.8945 75.9088 69.8454 73.6165 69.8479 71.2256V9.26119C69.8454 6.8703 68.8945 4.57806 67.2039 2.88745C65.5133 1.19683 63.2211 0.245936 60.8302 0.243408ZM67.461 71.2208C67.4593 72.9789 66.7601 74.6645 65.5169 75.9076C64.2738 77.1508 62.5882 77.8499 60.8302 77.8517H9.72335C7.96528 77.8499 6.27972 77.1508 5.03657 75.9076C3.79343 74.6645 3.09426 72.9789 3.09249 71.2208V9.25642C3.09426 7.49835 3.79343 5.81279 5.03657 4.56964C6.27972 3.3265 7.96528 2.62732 9.72335 2.62555H60.8302C62.5882 2.62732 64.2738 3.3265 65.5169 4.56964C66.7601 5.81279 67.4593 7.49835 67.461 9.25642V71.2208Z" fill="#FB8E26"/>
<path d="M35.277 10.6973C30.8231 10.6973 26.4693 12.018 22.766 14.4924C19.0627 16.9669 16.1764 20.4839 14.472 24.5987C12.7676 28.7136 12.3216 33.2414 13.1905 37.6097C14.0594 41.978 16.2042 45.9905 19.3535 49.1399C22.5029 52.2892 26.5154 54.434 30.8837 55.3029C35.252 56.1718 39.7798 55.7258 43.8947 54.0214C48.0095 52.317 51.5265 49.4307 54.001 45.7274C56.4754 42.0241 57.7961 37.6703 57.7961 33.2164C57.7896 27.246 55.4149 21.522 51.1932 17.3002C46.9714 13.0785 41.2474 10.7038 35.277 10.6973ZM54.6693 27.8831C51.6916 25.7992 48.2895 24.4005 44.7072 23.7871C44.0939 20.2048 42.6951 16.8028 40.6113 13.8251C43.9686 14.7553 47.028 16.5389 49.4915 19.0023C51.955 21.4656 53.7388 24.5248 54.6693 27.8821V27.8831ZM35.277 53.3487C32.68 53.3487 29.8806 49.4188 28.3902 43.0916C32.9595 43.7263 37.5945 43.7263 42.1637 43.0916C40.6733 49.4188 37.8739 53.3487 35.277 53.3487ZM35.277 41.1801C32.8071 41.1844 30.3411 40.987 27.9033 40.5901C27.1165 35.7058 27.1165 30.727 27.9033 25.8427C32.7876 25.0559 37.7664 25.0559 42.6507 25.8427C43.4375 30.727 43.4375 35.7058 42.6507 40.5901C40.2129 40.987 37.7468 41.1844 35.277 41.1801ZM25.4018 40.1032C19.0746 38.6137 15.1447 35.8134 15.1447 33.2164C15.1447 30.6195 19.0746 27.8201 25.4018 26.3297C24.7671 30.8989 24.7671 35.5339 25.4018 40.1032ZM35.277 13.0842C37.8739 13.0842 40.6733 17.014 42.1637 23.3413C37.5945 22.7065 32.9595 22.7065 28.3902 23.3413C29.8806 17.015 32.68 13.0842 35.277 13.0842ZM45.1521 26.3297C51.4794 27.8191 55.4092 30.6195 55.4092 33.2164C55.4092 35.8134 51.4794 38.6128 45.1521 40.1032C45.7869 35.5339 45.7869 30.8989 45.1521 26.3297ZM29.9427 13.8222C27.8588 16.7999 26.4601 20.202 25.8467 23.7843C22.2644 24.3976 18.8624 25.7964 15.8847 27.8802C16.8153 24.5231 18.5991 21.4641 21.0627 19.0009C23.5262 16.5377 26.5854 14.7543 29.9427 13.8241V13.8222ZM15.8856 38.5507C18.8633 40.6346 22.2654 42.0334 25.8477 42.6467C26.461 46.2289 27.8598 49.631 29.9436 52.6087C26.586 51.6786 23.5264 49.8949 21.0627 47.4313C18.599 44.9678 16.8151 41.9083 15.8847 38.5507H15.8856ZM40.6141 52.6087C42.698 49.631 44.0968 46.2289 44.7101 42.6467C48.2924 42.0334 51.6945 40.6346 54.6721 38.5507C53.7416 41.9085 51.9574 44.9682 49.4933 47.4317C47.0293 49.8953 43.9693 51.6788 40.6113 52.6087H40.6141Z" fill="#FB8E26"/>
<path d="M56.6027 62.8828H13.9513C13.6347 62.8828 13.3312 63.0086 13.1074 63.2324C12.8836 63.4562 12.7578 63.7597 12.7578 64.0763C12.7578 64.3928 12.8836 64.6964 13.1074 64.9202C13.3312 65.144 13.6347 65.2697 13.9513 65.2697H56.6027C56.9192 65.2697 57.2228 65.144 57.4466 64.9202C57.6704 64.6964 57.7961 64.3928 57.7961 64.0763C57.7961 63.7597 57.6704 63.4562 57.4466 63.2324C57.2228 63.0086 56.9192 62.8828 56.6027 62.8828Z" fill="#FB8E26"/>
<path d="M46.5036 68.4023H24.0494C23.7329 68.4023 23.4293 68.5281 23.2055 68.7519C22.9817 68.9757 22.856 69.2793 22.856 69.5958C22.856 69.9123 22.9817 70.2159 23.2055 70.4397C23.4293 70.6635 23.7329 70.7893 24.0494 70.7893H46.5036C46.8202 70.7893 47.1237 70.6635 47.3475 70.4397C47.5714 70.2159 47.6971 69.9123 47.6971 69.5958C47.6971 69.2793 47.5714 68.9757 47.3475 68.7519C47.1237 68.5281 46.8202 68.4023 46.5036 68.4023Z" fill="#FB8E26"/>
</svg>
